<?xml version="1.0" encoding="UTF-8" standalone="no"?>
<svg
   height="800"
   width="800"
   version="1.1"
   id="Capa_1"
   viewBox="0 0 47.94 47.94"
   xml:space="preserve"
   xmlns="http://www.w3.org/2000/svg"
   xmlns:svg="http://www.w3.org/2000/svg"><defs
   id="defs1" />
<path
   style="fill:#252525;fill-opacity:1"
   d="m 26.285,2.486 5.407,10.956 c 0.376,0.762 1.103,1.29 1.944,1.412 l 12.091,1.757 c 2.118,0.308 2.963,2.91 1.431,4.403 l -8.749,8.528 c -0.608,0.593 -0.886,1.448 -0.742,2.285 l 2.065,12.042 c 0.362,2.109 -1.852,3.717 -3.746,2.722 L 25.172,40.906 c -0.752,-0.395 -1.651,-0.395 -2.403,0 L 11.955,46.591 C 10.061,47.587 7.847,45.978 8.209,43.869 L 10.274,31.827 C 10.418,30.99 10.14,30.135 9.532,29.542 L 0.783,21.014 C -0.749,19.52 0.096,16.918 2.214,16.611 l 12.091,-1.757 c 0.841,-0.122 1.568,-0.65 1.944,-1.412 L 21.656,2.486 c 0.946,-1.919 3.682,-1.919 4.629,0 z"
   id="path1" />
</svg>
