<?xml version="1.0" encoding="UTF-8" standalone="no"?>
<!-- Uploaded to: SVG Repo, www.svgrepo.com, Generator: SVG Repo Mixer Tools -->

<svg
   width="800px"
   height="800px"
   viewBox="0 0 24 24"
   fill="none"
   version="1.1"
   id="svg2"
   sodipodi:docname="heart-b.svg"
   inkscape:version="1.3.2 (091e20e, 2023-11-25, custom)"
   xmlns:inkscape="http://www.inkscape.org/namespaces/inkscape"
   xmlns:sodipodi="http://sodipodi.sourceforge.net/DTD/sodipodi-0.dtd"
   xmlns="http://www.w3.org/2000/svg"
   xmlns:svg="http://www.w3.org/2000/svg">
  <defs
     id="defs2" />
  <sodipodi:namedview
     id="namedview2"
     pagecolor="#ffffff"
     bordercolor="#000000"
     borderopacity="0.25"
     inkscape:showpageshadow="2"
     inkscape:pageopacity="0.0"
     inkscape:pagecheckerboard="0"
     inkscape:deskcolor="#d1d1d1"
     inkscape:zoom="0.97125"
     inkscape:cx="399.4852"
     inkscape:cy="400"
     inkscape:window-width="1920"
     inkscape:window-height="991"
     inkscape:window-x="-9"
     inkscape:window-y="-9"
     inkscape:window-maximized="1"
     inkscape:current-layer="svg2" />
  <g
     id="g2"
     transform="translate(0,0.10786566)">
    <path
       opacity="0.5"
       d="m 12,4.7578225 2.232558,2.2319107"
       stroke="#d61e1e"
       stroke-width="1.67442"
       stroke-linecap="round"
       id="path1" />
    <path
       d="M 8.6084428,19.727036 9.1267535,19.069547 Z M 12,4.7574318 11.396763,5.3380086 C 11.554605,5.50199 11.772391,5.5946411 12,5.5946411 c 0.227609,0 0.445395,-0.092651 0.603237,-0.2566325 z m 3.391591,14.9696042 0.518288,0.657488 z M 9.1267535,19.069547 C 7.434854,17.735817 5.5848223,16.433343 4.1171609,14.780691 2.6781991,13.160301 1.6744186,11.269659 1.6744186,8.8167472 H 0 c 0,2.9754418 1.2396279,5.2453958 2.8651758,7.0757578 1.5968484,1.798103 3.6324279,3.23654 5.2249675,4.492019 z M 1.6744186,8.8167472 c 0,-2.4009712 1.3566921,-4.4144149 3.2085879,-5.2609228 1.7991182,-0.822374 4.2165209,-0.6045879 6.5137565,1.7821842 L 12.603237,4.1768551 C 9.8773953,1.3448439 6.7134028,0.87809415 4.1868949,2.032963 1.7131647,3.163709 0,5.7893202 0,8.8167472 Z M 8.0901433,20.384524 c 0.5717916,0.450753 1.1856223,0.931423 1.80768,1.294884 C 10.519702,22.042756 11.229321,22.338124 12,22.338124 v -1.674419 c -0.3456,0 -0.75226,-0.134735 -1.257377,-0.42999 C 10.23773,19.938682 9.7139498,19.532468 9.1267535,19.069547 Z m 7.8197357,0 c 1.592484,-1.255479 3.62813,-2.693916 5.224968,-4.492019 C 22.760372,14.062143 24,11.792189 24,8.8167472 h -1.674419 c 0,2.4529118 -1.003758,4.3435538 -2.442753,5.9639438 -1.467684,1.652652 -3.317693,2.955126 -5.009526,4.288856 z M 24,8.8167472 C 24,5.7893202 22.286847,3.163709 19.81306,2.032963 17.286586,0.87809415 14.122605,1.3448439 11.396763,4.1768551 l 1.206474,1.1611535 c 2.297191,-2.3867721 4.714605,-2.6045582 6.513712,-1.7821842 1.851907,0.8465079 3.208632,2.8599516 3.208632,5.2609228 z M 14.873302,19.069547 C 14.286028,19.532468 13.76227,19.938682 13.257377,20.233715 12.75226,20.52897 12.3456,20.663705 12,20.663705 v 1.674419 c 0.770679,0 1.480298,-0.295368 2.102177,-0.658716 0.622102,-0.363461 1.235832,-0.844131 1.807702,-1.294884 z"
       fill="#d61e1e"
       id="path2"
       style="stroke-width:1.11628" />
  </g>
</svg>
